<svg width="320" height="39" viewBox="0 0 320 39" fill="none" xmlns="http://www.w3.org/2000/svg">
<path d="M20.168 18.632C20.168 19.208 20.132 19.808 20.06 20.432H6.128C6.224 21.68 6.62 22.64 7.316 23.312C8.036 23.96 8.912 24.284 9.944 24.284C11.48 24.284 12.548 23.636 13.148 22.34H19.7C19.364 23.66 18.752 24.848 17.864 25.904C17 26.96 15.908 27.788 14.588 28.388C13.268 28.988 11.792 29.288 10.16 29.288C8.192 29.288 6.44 28.868 4.904 28.028C3.368 27.188 2.168 25.988 1.304 24.428C0.44 22.868 0.00800003 21.044 0.00800003 18.956C0.00800003 16.868 0.428 15.044 1.268 13.484C2.132 11.924 3.332 10.724 4.868 9.884C6.404 9.044 8.168 8.624 10.16 8.624C12.104 8.624 13.832 9.032 15.344 9.848C16.856 10.664 18.032 11.828 18.872 13.34C19.736 14.852 20.168 16.616 20.168 18.632ZM13.868 17.012C13.868 15.956 13.508 15.116 12.788 14.492C12.068 13.868 11.168 13.556 10.088 13.556C9.056 13.556 8.18 13.856 7.46 14.456C6.764 15.056 6.332 15.908 6.164 17.012H13.868ZM35.6556 8.696C38.0076 8.696 39.8796 9.464 41.2716 11C42.6876 12.512 43.3956 14.6 43.3956 17.264V29H37.2756V18.092C37.2756 16.748 36.9276 15.704 36.2316 14.96C35.5356 14.216 34.5996 13.844 33.4236 13.844C32.2476 13.844 31.3116 14.216 30.6156 14.96C29.9196 15.704 29.5716 16.748 29.5716 18.092V29H23.4156V8.912H29.5716V11.576C30.1956 10.688 31.0356 9.992 32.0916 9.488C33.1476 8.96 34.3356 8.696 35.6556 8.696ZM55.3054 8.624C56.7214 8.624 57.9574 8.912 59.0134 9.488C60.0934 10.064 60.9214 10.82 61.4974 11.756V8.912H67.6534V28.964C67.6534 30.812 67.2814 32.48 66.5374 33.968C65.8174 35.48 64.7014 36.68 63.1894 37.568C61.7014 38.456 59.8414 38.9 57.6094 38.9C54.6334 38.9 52.2214 38.192 50.3734 36.776C48.5254 35.384 47.4694 33.488 47.2054 31.088H53.2894C53.4814 31.856 53.9374 32.456 54.6574 32.888C55.3774 33.344 56.2654 33.572 57.3214 33.572C58.5934 33.572 59.6014 33.2 60.3454 32.456C61.1134 31.736 61.4974 30.572 61.4974 28.964V26.12C60.8974 27.056 60.0694 27.824 59.0134 28.424C57.9574 29 56.7214 29.288 55.3054 29.288C53.6494 29.288 52.1494 28.868 50.8054 28.028C49.4614 27.164 48.3934 25.952 47.6014 24.392C46.8334 22.808 46.4494 20.984 46.4494 18.92C46.4494 16.856 46.8334 15.044 47.6014 13.484C48.3934 11.924 49.4614 10.724 50.8054 9.884C52.1494 9.044 53.6494 8.624 55.3054 8.624ZM61.4974 18.956C61.4974 17.42 61.0654 16.208 60.2014 15.32C59.3614 14.432 58.3294 13.988 57.1054 13.988C55.8814 13.988 54.8374 14.432 53.9734 15.32C53.1334 16.184 52.7134 17.384 52.7134 18.92C52.7134 20.456 53.1334 21.68 53.9734 22.592C54.8374 23.48 55.8814 23.924 57.1054 23.924C58.3294 23.924 59.3614 23.48 60.2014 22.592C61.0654 21.704 61.4974 20.492 61.4974 18.956ZM78.263 2.36V29H72.107V2.36H78.263ZM85.8202 6.824C84.7402 6.824 83.8522 6.512 83.1562 5.888C82.4842 5.24 82.1482 4.448 82.1482 3.512C82.1482 2.552 82.4842 1.76 83.1562 1.136C83.8522 0.487998 84.7402 0.163998 85.8202 0.163998C86.8762 0.163998 87.7402 0.487998 88.4122 1.136C89.1082 1.76 89.4562 2.552 89.4562 3.512C89.4562 4.448 89.1082 5.24 88.4122 5.888C87.7402 6.512 86.8762 6.824 85.8202 6.824ZM88.8802 8.912V29H82.7242V8.912H88.8802ZM101.513 29.288C99.7614 29.288 98.2014 28.988 96.8334 28.388C95.4654 27.788 94.3854 26.972 93.5934 25.94C92.8014 24.884 92.3574 23.708 92.2614 22.412H98.3454C98.4174 23.108 98.7414 23.672 99.3174 24.104C99.8934 24.536 100.601 24.752 101.441 24.752C102.209 24.752 102.797 24.608 103.205 24.32C103.637 24.008 103.853 23.612 103.853 23.132C103.853 22.556 103.553 22.136 102.953 21.872C102.353 21.584 101.381 21.272 100.037 20.936C98.5974 20.6 97.3974 20.252 96.4374 19.892C95.4774 19.508 94.6494 18.92 93.9534 18.128C93.2574 17.312 92.9094 16.22 92.9094 14.852C92.9094 13.7 93.2214 12.656 93.8454 11.72C94.4934 10.76 95.4294 10.004 96.6534 9.452C97.9014 8.9 99.3774 8.624 101.081 8.624C103.601 8.624 105.581 9.248 107.021 10.496C108.485 11.744 109.325 13.4 109.541 15.464H103.853C103.757 14.768 103.445 14.216 102.917 13.808C102.413 13.4 101.741 13.196 100.901 13.196C100.181 13.196 99.6294 13.34 99.2454 13.628C98.8614 13.892 98.6694 14.264 98.6694 14.744C98.6694 15.32 98.9694 15.752 99.5694 16.04C100.193 16.328 101.153 16.616 102.449 16.904C103.937 17.288 105.149 17.672 106.085 18.056C107.021 18.416 107.837 19.016 108.533 19.856C109.253 20.672 109.625 21.776 109.649 23.168C109.649 24.344 109.313 25.4 108.641 26.336C107.993 27.248 107.045 27.968 105.797 28.496C104.573 29.024 103.145 29.288 101.513 29.288ZM125.764 8.696C128.068 8.696 129.916 9.464 131.308 11C132.7 12.512 133.396 14.6 133.396 17.264V29H127.276V18.092C127.276 16.748 126.928 15.704 126.232 14.96C125.536 14.216 124.6 13.844 123.424 13.844C122.248 13.844 121.312 14.216 120.616 14.96C119.92 15.704 119.572 16.748 119.572 18.092V29H113.416V2.36H119.572V11.612C120.196 10.724 121.048 10.016 122.128 9.488C123.208 8.96 124.42 8.696 125.764 8.696ZM316.229 29.288C315.149 29.288 314.261 28.976 313.565 28.352C312.893 27.704 312.557 26.912 312.557 25.976C312.557 25.016 312.893 24.212 313.565 23.564C314.261 22.916 315.149 22.592 316.229 22.592C317.285 22.592 318.149 22.916 318.821 23.564C319.517 24.212 319.865 25.016 319.865 25.976C319.865 26.912 319.517 27.704 318.821 28.352C318.149 28.976 317.285 29.288 316.229 29.288Z" fill="#0F241D"/>
<path d="M156.609 18.632C156.609 19.208 156.573 19.808 156.501 20.432H142.569C142.665 21.68 143.061 22.64 143.757 23.312C144.477 23.96 145.353 24.284 146.385 24.284C147.921 24.284 148.989 23.636 149.589 22.34H156.141C155.805 23.66 155.193 24.848 154.305 25.904C153.441 26.96 152.349 27.788 151.029 28.388C149.709 28.988 148.233 29.288 146.601 29.288C144.633 29.288 142.881 28.868 141.345 28.028C139.809 27.188 138.609 25.988 137.745 24.428C136.881 22.868 136.449 21.044 136.449 18.956C136.449 16.868 136.869 15.044 137.709 13.484C138.573 11.924 139.773 10.724 141.309 9.884C142.845 9.044 144.609 8.624 146.601 8.624C148.545 8.624 150.273 9.032 151.785 9.848C153.297 10.664 154.473 11.828 155.313 13.34C156.177 14.852 156.609 16.616 156.609 18.632ZM150.309 17.012C150.309 15.956 149.949 15.116 149.229 14.492C148.509 13.868 147.609 13.556 146.529 13.556C145.497 13.556 144.621 13.856 143.901 14.456C143.205 15.056 142.773 15.908 142.605 17.012H150.309ZM171.737 29L167.885 23.42L164.645 29H157.985L164.609 18.74L157.805 8.912H164.717L168.569 14.456L171.809 8.912H178.469L171.737 19.028L178.649 29H171.737ZM199.957 18.632C199.957 19.208 199.921 19.808 199.849 20.432H185.917C186.013 21.68 186.409 22.64 187.105 23.312C187.825 23.96 188.701 24.284 189.733 24.284C191.269 24.284 192.337 23.636 192.937 22.34H199.489C199.153 23.66 198.541 24.848 197.653 25.904C196.789 26.96 195.697 27.788 194.377 28.388C193.057 28.988 191.581 29.288 189.949 29.288C187.981 29.288 186.229 28.868 184.693 28.028C183.157 27.188 181.957 25.988 181.093 24.428C180.229 22.868 179.797 21.044 179.797 18.956C179.797 16.868 180.217 15.044 181.057 13.484C181.921 11.924 183.121 10.724 184.657 9.884C186.193 9.044 187.957 8.624 189.949 8.624C191.893 8.624 193.621 9.032 195.133 9.848C196.645 10.664 197.821 11.828 198.661 13.34C199.525 14.852 199.957 16.616 199.957 18.632ZM193.657 17.012C193.657 15.956 193.297 15.116 192.577 14.492C191.857 13.868 190.957 13.556 189.877 13.556C188.845 13.556 187.969 13.856 187.249 14.456C186.553 15.056 186.121 15.908 185.953 17.012H193.657ZM209.361 12.26C210.081 11.156 210.981 10.292 212.061 9.668C213.141 9.02 214.341 8.696 215.661 8.696V15.212H213.969C212.433 15.212 211.281 15.548 210.513 16.22C209.745 16.868 209.361 18.02 209.361 19.676V29H203.205V8.912H209.361V12.26ZM217.379 18.956C217.379 16.868 217.799 15.044 218.639 13.484C219.503 11.924 220.691 10.724 222.203 9.884C223.739 9.044 225.491 8.624 227.459 8.624C229.979 8.624 232.079 9.284 233.759 10.604C235.463 11.924 236.579 13.784 237.107 16.184H230.555C230.003 14.648 228.935 13.88 227.351 13.88C226.223 13.88 225.323 14.324 224.651 15.212C223.979 16.076 223.643 17.324 223.643 18.956C223.643 20.588 223.979 21.848 224.651 22.736C225.323 23.6 226.223 24.032 227.351 24.032C228.935 24.032 230.003 23.264 230.555 21.728H237.107C236.579 24.08 235.463 25.928 233.759 27.272C232.055 28.616 229.955 29.288 227.459 29.288C225.491 29.288 223.739 28.868 222.203 28.028C220.691 27.188 219.503 25.988 218.639 24.428C217.799 22.868 217.379 21.044 217.379 18.956ZM243.496 6.824C242.416 6.824 241.528 6.512 240.832 5.888C240.16 5.24 239.824 4.448 239.824 3.512C239.824 2.552 240.16 1.76 240.832 1.136C241.528 0.487998 242.416 0.163998 243.496 0.163998C244.552 0.163998 245.416 0.487998 246.088 1.136C246.784 1.76 247.132 2.552 247.132 3.512C247.132 4.448 246.784 5.24 246.088 5.888C245.416 6.512 244.552 6.824 243.496 6.824ZM246.556 8.912V29H240.4V8.912H246.556ZM259.189 29.288C257.437 29.288 255.877 28.988 254.509 28.388C253.141 27.788 252.061 26.972 251.269 25.94C250.477 24.884 250.033 23.708 249.937 22.412H256.021C256.093 23.108 256.417 23.672 256.993 24.104C257.569 24.536 258.277 24.752 259.117 24.752C259.885 24.752 260.473 24.608 260.881 24.32C261.313 24.008 261.529 23.612 261.529 23.132C261.529 22.556 261.229 22.136 260.629 21.872C260.029 21.584 259.057 21.272 257.713 20.936C256.273 20.6 255.073 20.252 254.113 19.892C253.153 19.508 252.325 18.92 251.629 18.128C250.933 17.312 250.585 16.22 250.585 14.852C250.585 13.7 250.897 12.656 251.521 11.72C252.169 10.76 253.105 10.004 254.329 9.452C255.577 8.9 257.053 8.624 258.757 8.624C261.277 8.624 263.257 9.248 264.697 10.496C266.161 11.744 267.001 13.4 267.217 15.464H261.529C261.433 14.768 261.121 14.216 260.593 13.808C260.089 13.4 259.417 13.196 258.577 13.196C257.857 13.196 257.305 13.34 256.921 13.628C256.537 13.892 256.345 14.264 256.345 14.744C256.345 15.32 256.645 15.752 257.245 16.04C257.869 16.328 258.829 16.616 260.125 16.904C261.613 17.288 262.825 17.672 263.761 18.056C264.697 18.416 265.513 19.016 266.209 19.856C266.929 20.672 267.301 21.776 267.325 23.168C267.325 24.344 266.989 25.4 266.317 26.336C265.669 27.248 264.721 27.968 263.473 28.496C262.249 29.024 260.821 29.288 259.189 29.288ZM290.027 18.632C290.027 19.208 289.991 19.808 289.919 20.432H275.987C276.083 21.68 276.479 22.64 277.175 23.312C277.895 23.96 278.771 24.284 279.803 24.284C281.339 24.284 282.407 23.636 283.007 22.34H289.559C289.223 23.66 288.611 24.848 287.723 25.904C286.859 26.96 285.767 27.788 284.447 28.388C283.127 28.988 281.651 29.288 280.019 29.288C278.051 29.288 276.299 28.868 274.763 28.028C273.227 27.188 272.027 25.988 271.163 24.428C270.299 22.868 269.867 21.044 269.867 18.956C269.867 16.868 270.287 15.044 271.127 13.484C271.991 11.924 273.191 10.724 274.727 9.884C276.263 9.044 278.027 8.624 280.019 8.624C281.963 8.624 283.691 9.032 285.203 9.848C286.715 10.664 287.891 11.828 288.731 13.34C289.595 14.852 290.027 16.616 290.027 18.632ZM283.727 17.012C283.727 15.956 283.367 15.116 282.647 14.492C281.927 13.868 281.027 13.556 279.947 13.556C278.915 13.556 278.039 13.856 277.319 14.456C276.623 15.056 276.191 15.908 276.023 17.012H283.727ZM301.447 29.288C299.695 29.288 298.135 28.988 296.767 28.388C295.399 27.788 294.319 26.972 293.527 25.94C292.735 24.884 292.291 23.708 292.195 22.412H298.279C298.351 23.108 298.675 23.672 299.251 24.104C299.827 24.536 300.535 24.752 301.375 24.752C302.143 24.752 302.731 24.608 303.139 24.32C303.571 24.008 303.787 23.612 303.787 23.132C303.787 22.556 303.487 22.136 302.887 21.872C302.287 21.584 301.315 21.272 299.971 20.936C298.531 20.6 297.331 20.252 296.371 19.892C295.411 19.508 294.583 18.92 293.887 18.128C293.191 17.312 292.843 16.22 292.843 14.852C292.843 13.7 293.155 12.656 293.779 11.72C294.427 10.76 295.363 10.004 296.587 9.452C297.835 8.9 299.311 8.624 301.015 8.624C303.535 8.624 305.515 9.248 306.955 10.496C308.419 11.744 309.259 13.4 309.475 15.464H303.787C303.691 14.768 303.379 14.216 302.851 13.808C302.347 13.4 301.675 13.196 300.835 13.196C300.115 13.196 299.563 13.34 299.179 13.628C298.795 13.892 298.603 14.264 298.603 14.744C298.603 15.32 298.903 15.752 299.503 16.04C300.127 16.328 301.087 16.616 302.383 16.904C303.871 17.288 305.083 17.672 306.019 18.056C306.955 18.416 307.771 19.016 308.467 19.856C309.187 20.672 309.559 21.776 309.583 23.168C309.583 24.344 309.247 25.4 308.575 26.336C307.927 27.248 306.979 27.968 305.731 28.496C304.507 29.024 303.079 29.288 301.447 29.288Z" fill="white"/>
</svg>
